<mxfile host="app.diagrams.net" agent="Mozilla/5.0 (Windows NT 10.0; Win64; x64) AppleWebKit/537.36 (KHTML, like Gecko) Chrome/137.0.0.0 Safari/537.36" version="27.2.0">
  <diagram name="Page-1" id="4gWzJ-evPD3haTWPr5zk">
    <mxGraphModel dx="524" dy="278" grid="1" gridSize="10" guides="1" tooltips="1" connect="1" arrows="1" fold="1" page="1" pageScale="1" pageWidth="480" pageHeight="270" math="0" shadow="0">
      <root>
        <mxCell id="0" />
        <mxCell id="1" parent="0" />
        <mxCell id="64wtPuvB0Fm50-fOGABp-1" value="" style="rounded=0;whiteSpace=wrap;html=1;fillColor=#333333;movable=0;resizable=0;rotatable=0;deletable=0;editable=0;locked=1;connectable=0;" parent="1" vertex="1">
          <mxGeometry width="480" height="270" as="geometry" />
        </mxCell>
        <mxCell id="64wtPuvB0Fm50-fOGABp-3" value="&lt;font style=&quot;font-size: 9px;&quot;&gt;int[ ] arr1 =&lt;font style=&quot;color: rgb(255, 217, 102);&quot;&gt; &lt;/font&gt;&lt;font style=&quot;color: rgb(255, 51, 51);&quot;&gt;{1,3,10,17,25}&lt;br&gt;&lt;/font&gt;&lt;/font&gt;&lt;span style=&quot;font-size: 9px;&quot;&gt;String[ ] array =&lt;/span&gt;&lt;font style=&quot;font-size: 9px; color: rgb(255, 217, 102);&quot;&gt;&amp;nbsp;&lt;/font&gt;&lt;font style=&quot;font-size: 9px; color: rgb(255, 51, 51);&quot;&gt;{&quot;Maahi&quot;, &quot;Thala&quot;}&lt;/font&gt;&amp;nbsp;" style="rounded=0;whiteSpace=wrap;html=1;fillColor=#dae8fc;strokeColor=#6c8ebf;" parent="1" vertex="1">
          <mxGeometry x="15" y="49.5" width="150" height="50" as="geometry" />
        </mxCell>
        <mxCell id="64wtPuvB0Fm50-fOGABp-5" value="&lt;b&gt;&lt;font style=&quot;color: rgb(255, 51, 51); font-size: 10px;&quot;&gt;arr1&amp;nbsp;&lt;br&gt;array&lt;/font&gt;&lt;/b&gt;" style="shape=cylinder3;whiteSpace=wrap;html=1;boundedLbl=1;backgroundOutline=1;size=15;fillColor=#fff2cc;strokeColor=#d6b656;gradientColor=#ffd966;" parent="1" vertex="1">
          <mxGeometry x="190" y="25" width="50" height="85" as="geometry" />
        </mxCell>
        <mxCell id="64wtPuvB0Fm50-fOGABp-6" value="&lt;b&gt;Stack&lt;/b&gt;" style="text;html=1;align=center;verticalAlign=middle;whiteSpace=wrap;rounded=0;" parent="1" vertex="1">
          <mxGeometry x="185" y="25" width="60" height="30" as="geometry" />
        </mxCell>
        <mxCell id="64wtPuvB0Fm50-fOGABp-7" value="" style="ellipse;whiteSpace=wrap;html=1;fillColor=#e6d0de;gradientColor=#d5739d;strokeColor=#996185;" parent="1" vertex="1">
          <mxGeometry x="275" y="9" width="180" height="131" as="geometry" />
        </mxCell>
        <mxCell id="64wtPuvB0Fm50-fOGABp-8" value="&lt;b&gt;Heap&lt;/b&gt;" style="text;html=1;align=center;verticalAlign=middle;whiteSpace=wrap;rounded=0;" parent="1" vertex="1">
          <mxGeometry x="340" y="13.75" width="60" height="30" as="geometry" />
        </mxCell>
        <mxCell id="64wtPuvB0Fm50-fOGABp-9" value="&lt;font style=&quot;color: rgb(51, 51, 51);&quot;&gt;&lt;font style=&quot;font-size: 9px;&quot;&gt;arr1[0], arr1[1], arr1[2], arr1[2], arr1[4]&lt;/font&gt;&lt;/font&gt;" style="text;html=1;align=center;verticalAlign=middle;whiteSpace=wrap;rounded=0;" parent="1" vertex="1">
          <mxGeometry x="260" y="42.5" width="220" height="30" as="geometry" />
        </mxCell>
        <mxCell id="64wtPuvB0Fm50-fOGABp-11" value="&lt;font style=&quot;font-size: 10px;&quot;&gt;3&lt;/font&gt;" style="whiteSpace=wrap;html=1;aspect=fixed;" parent="1" vertex="1">
          <mxGeometry x="330" y="65.69" width="12.87" height="12.87" as="geometry" />
        </mxCell>
        <mxCell id="64wtPuvB0Fm50-fOGABp-23" value="&lt;font style=&quot;color: rgb(102, 255, 102);&quot;&gt;1D Array&lt;/font&gt;" style="text;html=1;align=center;verticalAlign=middle;whiteSpace=wrap;rounded=0;" parent="1" vertex="1">
          <mxGeometry x="60" y="25" width="60" height="30" as="geometry" />
        </mxCell>
        <mxCell id="64wtPuvB0Fm50-fOGABp-24" value="&lt;font style=&quot;color: rgb(102, 255, 102);&quot;&gt;2D Array&lt;/font&gt;" style="text;html=1;align=center;verticalAlign=middle;whiteSpace=wrap;rounded=0;" parent="1" vertex="1">
          <mxGeometry x="40" y="160" width="60" height="30" as="geometry" />
        </mxCell>
        <mxCell id="64wtPuvB0Fm50-fOGABp-25" value="&lt;font style=&quot;&quot;&gt;&lt;font style=&quot;font-size: 10px;&quot;&gt;int[ ] [ ] twodarray =&lt;/font&gt;&lt;font style=&quot;font-size: 9px; color: rgb(255, 217, 102);&quot;&gt; &lt;br&gt;&lt;/font&gt;&lt;font style=&quot;color: rgb(255, 51, 51);&quot;&gt;&lt;b&gt;&lt;font&gt;{&lt;/font&gt;&lt;font style=&quot;font-size: 9px;&quot;&gt;&amp;nbsp;&lt;/font&gt;&lt;/b&gt;&lt;/font&gt;&lt;font style=&quot;font-size: 9px; color: rgb(255, 51, 51);&quot;&gt; &amp;nbsp; &amp;nbsp; &amp;nbsp; &amp;nbsp; &amp;nbsp; &amp;nbsp; &amp;nbsp; &amp;nbsp; &amp;nbsp;&lt;br&gt;{6,0,3,10},&lt;br&gt;{70,2},&amp;nbsp; &amp;nbsp; &amp;nbsp;&lt;br&gt;{1,2,3}&amp;nbsp; &amp;nbsp;&amp;nbsp;&lt;br&gt;&amp;nbsp; &amp;nbsp; &amp;nbsp; &amp;nbsp; &amp;nbsp; &amp;nbsp; &amp;nbsp; &amp;nbsp;&lt;/font&gt;&lt;font style=&quot;color: rgb(255, 51, 51);&quot;&gt;&lt;b&gt;}&lt;/b&gt;&lt;/font&gt;&lt;/font&gt;&lt;font&gt;&lt;b&gt;&amp;nbsp;&lt;/b&gt;&lt;/font&gt;" style="rounded=0;whiteSpace=wrap;html=1;fillColor=#dae8fc;strokeColor=#6c8ebf;" parent="1" vertex="1">
          <mxGeometry x="20" y="150" width="140" height="100" as="geometry" />
        </mxCell>
        <mxCell id="64wtPuvB0Fm50-fOGABp-26" value="&lt;font color=&quot;#ff3333&quot;&gt;&lt;span style=&quot;font-size: 10px;&quot;&gt;&lt;b&gt;twodarray&lt;/b&gt;&lt;/span&gt;&lt;/font&gt;" style="shape=cylinder3;whiteSpace=wrap;html=1;boundedLbl=1;backgroundOutline=1;size=15;fillColor=#fff2cc;strokeColor=#d6b656;gradientColor=#ffd966;" parent="1" vertex="1">
          <mxGeometry x="200" y="165" width="50" height="70" as="geometry" />
        </mxCell>
        <mxCell id="64wtPuvB0Fm50-fOGABp-27" value="&lt;b&gt;Stack&lt;/b&gt;" style="text;html=1;align=center;verticalAlign=middle;whiteSpace=wrap;rounded=0;" parent="1" vertex="1">
          <mxGeometry x="195" y="165" width="60" height="30" as="geometry" />
        </mxCell>
        <mxCell id="64wtPuvB0Fm50-fOGABp-28" value="&lt;div&gt;&lt;b&gt;&lt;font style=&quot;color: rgb(255, 51, 51);&quot;&gt;&lt;font style=&quot;&quot;&gt;&lt;br&gt;&lt;/font&gt;&lt;/font&gt;&lt;/b&gt;&lt;/div&gt;&lt;b&gt;&lt;font style=&quot;color: rgb(255, 51, 51);&quot;&gt;&lt;font style=&quot;&quot;&gt;[&lt;/font&gt;&lt;font style=&quot;font-size: 9px;&quot;&gt;&amp;nbsp;&lt;/font&gt;&lt;/font&gt;&lt;font style=&quot;font-size: 9px; color: rgb(255, 51, 51);&quot;&gt;&amp;nbsp;&amp;nbsp; &amp;nbsp; &amp;nbsp; &amp;nbsp; &amp;nbsp; &amp;nbsp; &amp;nbsp; &amp;nbsp; &amp;nbsp;&lt;br&gt;&amp;nbsp; &amp;nbsp;[6,0,3,10],&lt;br&gt;&amp;nbsp; &amp;nbsp;[70,2],&amp;nbsp; &amp;nbsp; &amp;nbsp;&lt;br&gt;&amp;nbsp; &amp;nbsp;[1,2,3]&amp;nbsp; &amp;nbsp;&amp;nbsp;&lt;br&gt;&amp;nbsp; &amp;nbsp; &amp;nbsp; &amp;nbsp; &amp;nbsp; &amp;nbsp; &amp;nbsp; &amp;nbsp;&lt;/font&gt;&lt;font style=&quot;color: rgb(255, 51, 51);&quot;&gt;]&lt;/font&gt;&lt;/b&gt;" style="ellipse;whiteSpace=wrap;html=1;fillColor=#e6d0de;gradientColor=#d5739d;strokeColor=#996185;" parent="1" vertex="1">
          <mxGeometry x="275" y="150" width="190" height="100" as="geometry" />
        </mxCell>
        <mxCell id="64wtPuvB0Fm50-fOGABp-29" value="&lt;b&gt;Heap&lt;/b&gt;" style="text;html=1;align=center;verticalAlign=middle;whiteSpace=wrap;rounded=0;" parent="1" vertex="1">
          <mxGeometry x="340" y="150" width="60" height="30" as="geometry" />
        </mxCell>
        <mxCell id="64wtPuvB0Fm50-fOGABp-32" value="&lt;font style=&quot;color: rgb(102, 255, 102);&quot;&gt;2D Array&lt;/font&gt;" style="text;html=1;align=center;verticalAlign=middle;whiteSpace=wrap;rounded=0;" parent="1" vertex="1">
          <mxGeometry x="60" y="130" width="60" height="20" as="geometry" />
        </mxCell>
        <mxCell id="gd6HZobyyJqjsRvMiYah-4" value="&lt;span style=&quot;font-size: 10px;&quot;&gt;1&lt;/span&gt;" style="whiteSpace=wrap;html=1;aspect=fixed;" vertex="1" parent="1">
          <mxGeometry x="300" y="65.69" width="12.87" height="12.87" as="geometry" />
        </mxCell>
        <mxCell id="gd6HZobyyJqjsRvMiYah-5" value="&lt;span style=&quot;font-size: 10px;&quot;&gt;10&lt;/span&gt;" style="whiteSpace=wrap;html=1;aspect=fixed;" vertex="1" parent="1">
          <mxGeometry x="363.57" y="65.69" width="12.87" height="12.87" as="geometry" />
        </mxCell>
        <mxCell id="gd6HZobyyJqjsRvMiYah-6" value="&lt;span style=&quot;font-size: 10px;&quot;&gt;17&lt;/span&gt;" style="whiteSpace=wrap;html=1;aspect=fixed;" vertex="1" parent="1">
          <mxGeometry x="400" y="65.69" width="12.87" height="12.87" as="geometry" />
        </mxCell>
        <mxCell id="gd6HZobyyJqjsRvMiYah-7" value="&lt;span style=&quot;font-size: 10px;&quot;&gt;25&lt;/span&gt;" style="whiteSpace=wrap;html=1;aspect=fixed;" vertex="1" parent="1">
          <mxGeometry x="430" y="65.69" width="12.87" height="12.87" as="geometry" />
        </mxCell>
        <mxCell id="gd6HZobyyJqjsRvMiYah-8" value="&lt;font style=&quot;font-size: 26px; color: rgb(255, 51, 51);&quot;&gt;{&lt;/font&gt;" style="text;html=1;align=center;verticalAlign=middle;whiteSpace=wrap;rounded=0;" vertex="1" parent="1">
          <mxGeometry x="260" y="48.56" width="60" height="30" as="geometry" />
        </mxCell>
        <mxCell id="gd6HZobyyJqjsRvMiYah-9" value="&lt;font color=&quot;#ff3333&quot;&gt;&lt;span style=&quot;font-size: 26px;&quot;&gt;}&lt;/span&gt;&lt;/font&gt;" style="text;html=1;align=center;verticalAlign=middle;whiteSpace=wrap;rounded=0;" vertex="1" parent="1">
          <mxGeometry x="420" y="48.56" width="60" height="30" as="geometry" />
        </mxCell>
        <mxCell id="gd6HZobyyJqjsRvMiYah-10" value="&lt;font style=&quot;&quot;&gt;&lt;font style=&quot;color: rgb(255, 51, 51); font-size: 15px;&quot;&gt;&lt;b&gt;{&lt;/b&gt;&lt;/font&gt;&lt;font style=&quot;font-size: 10px;&quot;&gt;array[0], array[1&lt;/font&gt;&lt;span style=&quot;font-size: 10px;&quot;&gt;]&lt;/span&gt;&lt;font style=&quot;color: rgb(255, 51, 51); font-size: 15px;&quot;&gt;&lt;b&gt;}&lt;/b&gt;&lt;/font&gt;&lt;/font&gt;" style="text;html=1;align=center;verticalAlign=middle;whiteSpace=wrap;rounded=0;" vertex="1" parent="1">
          <mxGeometry x="295" y="78.56" width="140" height="30" as="geometry" />
        </mxCell>
        <mxCell id="gd6HZobyyJqjsRvMiYah-11" value="&lt;b&gt;&lt;font style=&quot;font-size: 10px; color: rgb(255, 51, 51);&quot;&gt;Thala&lt;/font&gt;&lt;/b&gt;" style="rounded=1;whiteSpace=wrap;html=1;" vertex="1" parent="1">
          <mxGeometry x="291.43" y="99.5" width="30" height="11.44" as="geometry" />
        </mxCell>
        <mxCell id="gd6HZobyyJqjsRvMiYah-12" value="&lt;font color=&quot;#ff3333&quot;&gt;&lt;span style=&quot;font-size: 10px;&quot;&gt;&lt;b&gt;Maahi&lt;/b&gt;&lt;/span&gt;&lt;/font&gt;" style="rounded=1;whiteSpace=wrap;html=1;" vertex="1" parent="1">
          <mxGeometry x="391.43" y="110.94" width="30" height="11.44" as="geometry" />
        </mxCell>
        <mxCell id="gd6HZobyyJqjsRvMiYah-16" value="" style="endArrow=classic;html=1;rounded=0;entryX=0;entryY=0.5;entryDx=0;entryDy=0;exitX=0.413;exitY=0.952;exitDx=0;exitDy=0;exitPerimeter=0;" edge="1" parent="1" source="gd6HZobyyJqjsRvMiYah-10" target="gd6HZobyyJqjsRvMiYah-12">
          <mxGeometry width="50" height="50" relative="1" as="geometry">
            <mxPoint x="335" y="104.89" as="sourcePoint" />
            <mxPoint x="395" y="104.89" as="targetPoint" />
          </mxGeometry>
        </mxCell>
        <mxCell id="gd6HZobyyJqjsRvMiYah-17" value="" style="endArrow=classic;html=1;rounded=0;entryX=0.25;entryY=0;entryDx=0;entryDy=0;" edge="1" parent="1" target="gd6HZobyyJqjsRvMiYah-11">
          <mxGeometry width="50" height="50" relative="1" as="geometry">
            <mxPoint x="390" y="90" as="sourcePoint" />
            <mxPoint x="250" y="90" as="targetPoint" />
            <Array as="points">
              <mxPoint x="390" y="90" />
              <mxPoint x="320" y="80" />
            </Array>
          </mxGeometry>
        </mxCell>
      </root>
    </mxGraphModel>
  </diagram>
</mxfile>
